<?xml version="1.0" encoding="UTF-8" standalone="no"?>
<!-- Created with Inkscape (http://www.inkscape.org/) -->

<svg
   width="2048"
   height="2048"
   viewBox="0 0 541.86667 541.86667"
   version="1.1"
   id="svg5"
   xml:space="preserve"
   inkscape:version="1.2 (dc2aedaf03, 2022-05-15)"
   sodipodi:docname="hydra.svg"
   xmlns:inkscape="http://www.inkscape.org/namespaces/inkscape"
   xmlns:sodipodi="http://sodipodi.sourceforge.net/DTD/sodipodi-0.dtd"
   xmlns="http://www.w3.org/2000/svg"
   xmlns:svg="http://www.w3.org/2000/svg"><sodipodi:namedview
     id="namedview7"
     pagecolor="#505050"
     bordercolor="#eeeeee"
     borderopacity="1"
     inkscape:showpageshadow="0"
     inkscape:pageopacity="0"
     inkscape:pagecheckerboard="0"
     inkscape:deskcolor="#505050"
     inkscape:document-units="mm"
     showgrid="false"
     inkscape:zoom="0.16173406"
     inkscape:cx="-281.32602"
     inkscape:cy="1051.1082"
     inkscape:window-width="2560"
     inkscape:window-height="1377"
     inkscape:window-x="-8"
     inkscape:window-y="-8"
     inkscape:window-maximized="1"
     inkscape:current-layer="svg5" /><defs
     id="defs2" /><g
     inkscape:groupmode="layer"
     id="layer4-3"
     inkscape:label="BackWater"
     transform="matrix(1.1322783,0,0,1.1349586,-35.295755,-35.907192)"><circle
       style="fill:#009ce4;fill-opacity:1;stroke:#000000;stroke-width:80.6597;stroke-opacity:0"
       id="path560-4"
       cx="270.74411"
       cy="271.15308"
       r="223.23714" /></g><g
     inkscape:groupmode="layer"
     id="layer5"
     inkscape:label="Circle"
     transform="matrix(12.021488,0,0,6.4383939,-242.0598,-171.13239)"><ellipse
       style="fill:#000000;fill-opacity:1;stroke:#000000;stroke-width:14.8919;stroke-opacity:0"
       id="path2161"
       cx="42.693634"
       cy="68.845337"
       rx="20.46763"
       ry="38.285069" /></g><g
     inkscape:groupmode="layer"
     id="layer4"
     inkscape:label="Water"><circle
       style="fill:#009ce4;fill-opacity:1;stroke:#000000;stroke-width:80.6597;stroke-opacity:0"
       id="path560"
       cx="270.74411"
       cy="271.15308"
       r="223.23714" /></g><g
     inkscape:groupmode="layer"
     id="layer2"
     inkscape:label="Tentacles"><path
       style="opacity:1;fill:#000000;fill-opacity:1;stroke:#000000;stroke-width:20;stroke-opacity:0"
       d="m 267.64702,285.86612 v 31.81109 l -15.32716,18.07448 -39.47468,7.80818 c 0,0 -9.83252,3.3257 -14.74879,9.10955 -4.91626,5.78384 -20.24342,20.82181 -19.23125,40.92064 1.01217,20.09884 0.86758,7.66358 0.86758,7.66358 l 2.45813,0.28919 5.20545,8.82036 -1.73515,2.74733 5.92843,8.53114 3.4703,-2.16892 7.66358,5.20544 -0.86757,4.77168 10.12171,3.90409 1.59056,-5.20547 h 9.54333 l 3.03651,5.49465 8.96495,-2.31354 -0.57839,-5.78384 6.65141,-4.77166 5.35005,3.4703 6.07303,-7.95276 -3.03651,-4.19328 2.74732,-7.37441 5.92843,-0.43379 -0.14459,-9.39874 h -1.87975 l -3.03652,-8.82033 4.33788,-3.4703 -4.04868,-7.51898 -3.90409,0.43378 -4.77167,-6.36222 0.2892,-3.7595 -3.32571,-3.90408 c 0,0 8.82035,-0.28919 14.31499,5.06084 5.49465,5.35006 9.97713,11.13388 9.97713,11.13388 l 0.28919,44.68016 c 0,0 0,8.53115 -4.91627,17.06232 -4.91626,8.53114 -6.50681,14.45958 -6.50681,14.45958 l -37.30575,11.27848 -21.54479,-12.57986 -23.85832,-22.84613 -14.45959,-17.20691 -2.31354,-6.36223 12.14606,-36.14899 12.72444,-27.03943 5.06085,-7.80817 0.86758,-4.62706 3.32571,-3.18112 2.31353,1.44595 8.38656,-4.33787 0.2892,-5.35006 9.83252,-3.61489 3.3257,3.18111 9.54333,-3.03652 0.43379,-6.36222 9.68793,-4.48247 3.75949,3.6149 1.87975,0.28919 5.63924,-3.6149 5.63924,-5.92844 5.78383,-8.96493 z"
       id="path4180" /><path
       style="fill:#000000;stroke:#000000;stroke-width:20;stroke-opacity:0"
       d="m 243.49951,260.99561 19.37585,8.82036 -0.0723,8.74805 -42.5835,20.53262 c 0,0 -8.31427,3.75949 -16.26704,0.79528 -7.95278,-2.96423 -15.25487,-7.01291 -15.25487,-7.01291 l -25.81037,-10.84469 -24.7259,-8.89265 -5.06086,-0.0723 -3.90409,0.57841 -11.92916,3.68718 -8.16967,4.19328 -3.75949,2.45813 -5.35005,4.91625 -4.048683,4.98856 -2.964217,4.04871 -2.530428,3.97637 -1.952045,4.12099 -1.229067,2.96421 -0.578381,2.45814 1.807448,1.01216 v 10.48321 l -3.904091,2.16895 1.662853,11.06157 4.843962,-0.36147 5.133155,7.95276 -3.759494,4.91625 3.361857,4.59095 4.825891,4.48246 3.72334,-3.72335 8.36849,3.52452 0.10845,6.48874 0.48801,0.48803 2.09664,1.03023 3.66912,0.81336 4.37403,0.0361 0.90372,-5.49463 9.23606,-1.46404 3.15322,6.23847 9.86662,-3.65524 0.0767,-0.84352 -1.55923,-4.85664 7.20826,-6.16024 4.88218,3.0929 5.26561,-8.38406 -2.12158,-2.17271 2.47943,-9.3554 5.1378,0.0511 0.28117,-10.58235 -4.62657,-0.28117 -0.12781,-10.0711 1.45699,-1.30363 0.43454,-1.07355 -0.94576,-4.57546 0.94576,0.35784 1.30362,1.38031 1.48255,2.27497 1.15026,1.94265 2.01933,3.80859 2.12158,4.65215 1.76372,4.29426 0.43454,1.35475 0.20449,1.50812 -0.0256,1.5081 -0.40898,1.89154 -4.19204,11.86039 -6.69703,16.15467 -11.93707,26.14909 -3.7575,7.82171 -35.01882,7.02935 -1.94265,0.0257 -1.89153,-0.56234 -1.3803,-1.12469 -21.752574,-26.27691 -3.297394,-4.39653 -3.987546,-7.25937 -3.629686,-8.28183 -4.06423,-12.83171 -3.501882,-16.87039 -1.175814,-12.3716 -0.357857,-6.08356 0.07668,-7.9751 0.485663,-7.1827 1.584794,-9.89219 1.661477,-7.38716 1.687039,-5.44455 1.456986,-3.37407 2.147142,-3.14402 3.271832,-3.24627 3.987543,-2.47944 4.268719,-1.63591 3.322955,-0.74128 14.314263,-1.58479 6.97821,-0.46011 6.72259,-0.23005 9.04866,0.0256 10.32672,0.7924 6.62035,0.97132 5.44453,1.30362 4.54989,1.32919 4.77994,1.58479 2.47944,-3.85974 9.78993,1.61036 0.0256,3.45076 3.47632,1.3803 3.93643,1.84041 4.24315,-3.22071 8.30739,4.75438 0.43454,4.90775 7.46386,4.80549 5.34229,-4.19203 8.00065,4.93331 -0.10224,3.57857 0.28117,1.5081 0.66459,1.66148 0.56235,0.38343 2.42831,-0.0511 2.1727,-0.86911 z"
       id="path414" /><path
       style="fill:#000000;stroke:#000000;stroke-width:20;stroke-opacity:0"
       d="m 233.19705,257.05538 -2.49428,1.04832 -8.60345,1.44596 -11.82072,0.43378 -30.22054,-15.14642 -3.39801,-2.20508 -3.25341,-3.14497 -3.50645,-4.88011 -2.53042,-4.69937 -3.00037,-9.43488 -5.71154,-24.68975 -3.4703,-9.54333 -3.32571,-6.25377 -4.04868,-5.02471 -6.57911,-5.53079 -6.50682,-3.39801 -5.67539,-1.73515 -6.43452,-0.90372 -9.47103,-0.39764 -1.59056,0.36149 v 2.71117 l -7.26594,3.90409 -2.49428,-2.42198 -6.904455,5.3862 2.024343,2.45813 -3.831791,7.04905 -4.482473,-1.19292 -2.964217,8.49501 3.759494,1.08447 0.180745,7.55514 -4.120984,2.09664 1.482109,7.84433 4.771665,-1.26522 3.976386,5.60309 -2.78347,4.04869 6.073026,6.07303 3.181112,-3.39801 6.25377,2.53043 0.10845,5.09701 h 7.69973 l -0.0361,-1.62671 7.04905,-2.27738 2.60273,3.57875 6.9406,-3.47031 -0.43378,-3.14496 5.45849,-3.97638 1.30136,0.57838 3.50646,-3.6872 0.18074,5.78384 -7.66358,6.75986 -15.9417,10.98929 -4.01254,1.30136 -5.27775,1.30136 -4.84396,0.86758 -9.507183,1.01217 -2.060493,0.0361 -9.47103,-5.78384 -3.687196,-1.73515 -3.036515,-1.44596 -3.614899,-0.93987 -1.73515,-1.12062 -1.192917,-1.26521 -0.469934,-1.04832 -0.216895,-1.66285 0.180745,-29.64217 1.482108,-3.14496 1.301364,-4.08483 1.229064,-4.04869 1.699003,-5.38619 1.409809,-4.59092 1.156768,-3.43416 4.446323,-8.35041 37.884128,-17.17077 17.20691,-0.36148 0.10845,2.67502 2.56658,-0.0723 1.59055,0.32534 1.59056,0.57838 2.13279,0.86758 1.44596,1.22906 3.36185,-2.34968 8.67576,4.55477 -0.2169,4.51863 1.12062,0.57838 1.33751,0.72298 1.37367,1.08447 1.4821,1.40981 0.90373,1.44596 0.72298,1.66285 5.0247,-1.33751 5.20546,8.35041 -2.16894,2.92807 0.75913,1.08447 0.86757,1.59055 0.86758,1.69901 0.43379,1.37366 0.39764,1.5544 0.0361,0.83143 6.00073,-0.2169 2.74733,10.04942 -4.19329,3.5426 0.90373,2.31354 1.12062,3.14496 0.50608,2.13279 0.2892,1.80744 0.10844,0.83143 6.50682,0.79528 3.07266,9.29028 -4.12098,5.02471 -0.0723,1.22907 0.68683,1.87974 2.53043,5.42235 1.80745,3.00037 1.51825,1.80745 1.01217,1.12061 0.68684,0.57839 1.51825,0.39764 3.39801,0.25304 20.02653,0.97602 z"
       id="path416" /><path
       style="opacity:1;fill:#000000;fill-opacity:1;stroke:#000000;stroke-width:20;stroke-opacity:0"
       d="m 267.64702,285.86612 v 31.81109 l -15.32716,18.07448 -39.47468,7.80818 c 0,0 -9.83252,3.3257 -14.74879,9.10955 -4.91626,5.78384 -20.24342,20.82181 -19.23125,40.92064 1.01217,20.09884 0.86758,7.66358 0.86758,7.66358 l 2.45813,0.28919 5.20545,8.82036 -1.73515,2.74733 5.92843,8.53114 3.4703,-2.16892 7.66358,5.20544 -0.86757,4.77168 10.12171,3.90409 1.59056,-5.20547 h 9.54333 l 3.03651,5.49465 8.96495,-2.31354 -0.57839,-5.78384 6.65141,-4.77166 5.35005,3.4703 6.07303,-7.95276 -3.03651,-4.19328 2.74732,-7.37441 5.92843,-0.43379 -0.14459,-9.39874 h -1.87975 l -3.03652,-8.82033 4.33788,-3.4703 -4.04868,-7.51898 -3.90409,0.43378 -4.77167,-6.36222 0.2892,-3.7595 -3.32571,-3.90408 c 0,0 8.82035,-0.28919 14.31499,5.06084 5.49465,5.35006 9.97713,11.13388 9.97713,11.13388 l 0.28919,44.68016 c 0,0 0,8.53115 -4.91627,17.06232 -4.91626,8.53114 -6.50681,14.45958 -6.50681,14.45958 l -37.30575,11.27848 -21.54479,-12.57986 -23.85832,-22.84613 -14.45959,-17.20691 -2.31354,-6.36223 12.14606,-36.14899 12.72444,-27.03943 5.06085,-7.80817 0.86758,-4.62706 3.32571,-3.18112 2.31353,1.44595 8.38656,-4.33787 0.2892,-5.35006 9.83252,-3.61489 3.3257,3.18111 9.54333,-3.03652 0.43379,-6.36222 9.68793,-4.48247 3.75949,3.6149 1.87975,0.28919 5.63924,-3.6149 5.63924,-5.92844 5.78383,-8.96493 z"
       id="path418"
       transform="matrix(-0.99381977,0,0,1.0002065,542.08331,0.34584195)" /><path
       style="fill:#000000;stroke:#000000;stroke-width:20;stroke-opacity:0"
       d="m 243.49951,260.99561 19.37585,8.82036 -0.0723,8.74805 -42.5835,20.53262 c 0,0 -8.31427,3.75949 -16.26704,0.79528 -7.95278,-2.96423 -15.25487,-7.01291 -15.25487,-7.01291 l -25.81037,-10.84469 -24.7259,-8.89265 -5.06086,-0.0723 -3.90409,0.57841 -11.92916,3.68718 -8.16967,4.19328 -3.75949,2.45813 -5.35005,4.91625 -4.048683,4.98856 -2.964217,4.04871 -2.530428,3.97637 -1.952045,4.12099 -1.229067,2.96421 -0.578381,2.45814 1.807448,1.01216 v 10.48321 l -3.904091,2.16895 1.662853,11.06157 4.843962,-0.36147 5.133155,7.95276 -3.759494,4.91625 3.361857,4.59095 4.825891,4.48246 3.72334,-3.72335 8.36849,3.52452 0.10845,6.48874 0.48801,0.48803 2.09664,1.03023 3.66912,0.81336 4.37403,0.0361 0.90372,-5.49463 9.23606,-1.46404 3.15322,6.23847 9.86662,-3.65524 0.0767,-0.84352 -1.55923,-4.85664 7.20826,-6.16024 4.88218,3.0929 5.26561,-8.38406 -2.12158,-2.17271 2.47943,-9.3554 5.1378,0.0511 0.28117,-10.58235 -4.62657,-0.28117 -0.12781,-10.0711 1.45699,-1.30363 0.43454,-1.07355 -0.94576,-4.57546 0.94576,0.35784 1.30362,1.38031 1.48255,2.27497 1.15026,1.94265 2.01933,3.80859 2.12158,4.65215 1.76372,4.29426 0.43454,1.35475 0.20449,1.50812 -0.0256,1.5081 -0.40898,1.89154 -4.19204,11.86039 -6.69703,16.15467 -11.93707,26.14909 -3.7575,7.82171 -35.01882,7.02935 -1.94265,0.0257 -1.89153,-0.56234 -1.3803,-1.12469 -21.752574,-26.27691 -3.297394,-4.39653 -3.987546,-7.25937 -3.629686,-8.28183 -4.06423,-12.83171 -3.501882,-16.87039 -1.175814,-12.3716 -0.357857,-6.08356 0.07668,-7.9751 0.485663,-7.1827 1.584794,-9.89219 1.661477,-7.38716 1.687039,-5.44455 1.456986,-3.37407 2.147142,-3.14402 3.271832,-3.24627 3.987543,-2.47944 4.268719,-1.63591 3.322955,-0.74128 14.314263,-1.58479 6.97821,-0.46011 6.72259,-0.23005 9.04866,0.0256 10.32672,0.7924 6.62035,0.97132 5.44453,1.30362 4.54989,1.32919 4.77994,1.58479 2.47944,-3.85974 9.78993,1.61036 0.0256,3.45076 3.47632,1.3803 3.93643,1.84041 4.24315,-3.22071 8.30739,4.75438 0.43454,4.90775 7.46386,4.80549 5.34229,-4.19203 8.00065,4.93331 -0.10224,3.57857 0.28117,1.5081 0.66459,1.66148 0.56235,0.38343 2.42831,-0.0511 2.1727,-0.86911 z"
       id="path420"
       transform="matrix(-0.99381977,0,0,1.0002065,542.08331,0.34584195)" /><path
       style="fill:#000000;stroke:#000000;stroke-width:20;stroke-opacity:0"
       d="m 233.19705,257.05538 -2.49428,1.04832 -8.60345,1.44596 -11.82072,0.43378 -30.22054,-15.14642 -3.39801,-2.20508 -3.25341,-3.14497 -3.50645,-4.88011 -2.53042,-4.69937 -3.00037,-9.43488 -5.71154,-24.68975 -3.4703,-9.54333 -3.32571,-6.25377 -4.04868,-5.02471 -6.57911,-5.53079 -6.50682,-3.39801 -5.67539,-1.73515 -6.43452,-0.90372 -9.47103,-0.39764 -1.59056,0.36149 v 2.71117 l -7.26594,3.90409 -2.49428,-2.42198 -6.904455,5.3862 2.024343,2.45813 -3.831791,7.04905 -4.482473,-1.19292 -2.964217,8.49501 3.759494,1.08447 0.180745,7.55514 -4.120984,2.09664 1.482109,7.84433 4.771665,-1.26522 3.976386,5.60309 -2.78347,4.04869 6.073026,6.07303 3.181112,-3.39801 6.25377,2.53043 0.10845,5.09701 h 7.69973 l -0.0361,-1.62671 7.04905,-2.27738 2.60273,3.57875 6.9406,-3.47031 -0.43378,-3.14496 5.45849,-3.97638 1.30136,0.57838 3.50646,-3.6872 0.18074,5.78384 -7.66358,6.75986 -15.9417,10.98929 -4.01254,1.30136 -5.27775,1.30136 -4.84396,0.86758 -9.507183,1.01217 -2.060493,0.0361 -9.47103,-5.78384 -3.687196,-1.73515 -3.036515,-1.44596 -3.614899,-0.93987 -1.73515,-1.12062 -1.192917,-1.26521 -0.469934,-1.04832 -0.216895,-1.66285 0.180745,-29.64217 1.482108,-3.14496 1.301364,-4.08483 1.229064,-4.04869 1.699003,-5.38619 1.409809,-4.59092 1.156768,-3.43416 4.446323,-8.35041 37.884128,-17.17077 17.20691,-0.36148 0.10845,2.67502 2.56658,-0.0723 1.59055,0.32534 1.59056,0.57838 2.13279,0.86758 1.44596,1.22906 3.36185,-2.34968 8.67576,4.55477 -0.2169,4.51863 1.12062,0.57838 1.33751,0.72298 1.37367,1.08447 1.4821,1.40981 0.90373,1.44596 0.72298,1.66285 5.0247,-1.33751 5.20546,8.35041 -2.16894,2.92807 0.75913,1.08447 0.86757,1.59055 0.86758,1.69901 0.43379,1.37366 0.39764,1.5544 0.0361,0.83143 6.00073,-0.2169 2.74733,10.04942 -4.19329,3.5426 0.90373,2.31354 1.12062,3.14496 0.50608,2.13279 0.2892,1.80744 0.10844,0.83143 6.50682,0.79528 3.07266,9.29028 -4.12098,5.02471 -0.0723,1.22907 0.68683,1.87974 2.53043,5.42235 1.80745,3.00037 1.51825,1.80745 1.01217,1.12061 0.68684,0.57839 1.51825,0.39764 3.39801,0.25304 20.02653,0.97602 z"
       id="path422"
       transform="matrix(-0.99381977,0,0,1.0002065,542.08331,0.34584195)" /></g><g
     inkscape:groupmode="layer"
     id="layer3"
     inkscape:label="Swiss"
     transform="translate(1.226937,-2.862853)"><path
       d="M 0,0 H 32 V 32 H 0 Z"
       fill="#ff0000"
       id="path484"
       transform="matrix(4.2333333,0,0,4.2333333,202.1928,96.676223)" /><path
       d="m 13,6 h 6 v 7 h 7 v 6 h -7 v 7 H 13 V 19 H 6 v -6 h 7 z"
       fill="#ffffff"
       id="path486"
       transform="matrix(4.2333333,0,0,4.2333333,202.1928,96.676223)" /></g></svg>
